<svg xmlns="http://www.w3.org/2000/svg" viewBox="0 0 512 512">
  <rect width="512" height="512" rx="112" fill="#172033"/>
  <path d="M102 169c0-27 22-49 49-49h210c27 0 49 22 49 49v174c0 27-22 49-49 49H151c-27 0-49-22-49-49V169Z" fill="#fff"/>
  <path d="M102 205h308v-36c0-27-22-49-49-49H151c-27 0-49 22-49 49v36Z" fill="#ff6b35"/>
  <path d="M177 101v60M335 101v60" stroke="#fff" stroke-width="28" stroke-linecap="round"/>
  <path d="m191 299 43 43 91-104" fill="none" stroke="#16865a" stroke-width="30" stroke-linecap="round" stroke-linejoin="round"/>
</svg>
